<?xml version="1.0" standalone="no"?><!DOCTYPE svg PUBLIC "-//W3C//DTD SVG 1.1//EN" "http://www.w3.org/Graphics/SVG/1.1/DTD/svg11.dtd"><svg width="64" height="64" viewBox="0 0 64 64" version="1.1" xmlns="http://www.w3.org/2000/svg" xmlns:xlink="http://www.w3.org/1999/xlink"><defs><style type="text/css"><![CDATA[
@font-face { font-family: ifont; src: url("//at.alicdn.com/t/font_1442373896_4754455.eot?#iefix") format("embedded-opentype"), url("//at.alicdn.com/t/font_1442373896_4754455.woff") format("woff"), url("//at.alicdn.com/t/font_1442373896_4754455.ttf") format("truetype"), url("//at.alicdn.com/t/font_1442373896_4754455.svg#ifont") format("svg"); }

]]></style></defs><g class="transform-group"><g transform="scale(0.0625, 0.0625)"><path d="M512 102.4 267.3152 102.4 238.933333 102.4c-81.664 0-136.533333 54.869333-136.533333 136.533333l0 567.739733c0 26.965333 10.052267 114.961067 139.4688 114.961067L921.6 921.634133 921.6 102.4 512 102.4zM477.866667 136.533333l0 326.519467-83.592533-76.1344-92.808533 78.097067L301.4656 136.533333 477.866667 136.533333zM238.933333 136.533333l28.381867 0 0 401.8688 126.0544-106.120533L512 540.330667 512 136.533333l375.466667 0 0 563.234133L238.933333 699.767467c-43.434667 0-78.660267 12.970667-102.4 35.6352L136.533333 238.933333C136.533333 176.725333 176.725333 136.533333 238.933333 136.533333zM241.8688 887.5008c-78.250667 0-100.864-35.498667-104.6528-69.461333 0.068267-52.667733 38.058667-84.138667 101.717333-84.138667l648.533333 0 0 153.6L241.8688 887.5008z" fill="#fff"></path></g></g></svg>